<?xml version="1.0" encoding="UTF-8"?>
<svg xmlns="http://www.w3.org/2000/svg" xmlns:xlink="http://www.w3.org/1999/xlink" width="854pt" height="480pt" viewBox="0 0 854 480" version="1.1">
<defs>
<g>
<symbol overflow="visible" id="glyph0-0">
<path style="stroke:none;" d="M 0.65625 2.359375 L 0.65625 -9.390625 L 7.328125 -9.390625 L 7.328125 2.359375 Z M 1.40625 1.609375 L 6.59375 1.609375 L 6.59375 -8.65625 L 1.40625 -8.65625 Z "/>
</symbol>
<symbol overflow="visible" id="glyph0-1">
<path style="stroke:none;" d="M 1.25 -7.28125 L 2.453125 -7.28125 L 2.453125 0.125 C 2.453125 1.050781 2.273438 1.722656 1.921875 2.140625 C 1.566406 2.554688 1 2.765625 0.21875 2.765625 L -0.234375 2.765625 L -0.234375 1.75 L 0.078125 1.75 C 0.535156 1.75 0.84375 1.644531 1 1.4375 C 1.164062 1.226562 1.25 0.789062 1.25 0.125 Z M 1.25 -10.125 L 2.453125 -10.125 L 2.453125 -8.609375 L 1.25 -8.609375 Z "/>
</symbol>
<symbol overflow="visible" id="glyph0-2">
<path style="stroke:none;" d="M 4.5625 -3.65625 C 3.601562 -3.65625 2.9375 -3.546875 2.5625 -3.328125 C 2.1875 -3.109375 2 -2.734375 2 -2.203125 C 2 -1.773438 2.140625 -1.4375 2.421875 -1.1875 C 2.703125 -0.9375 3.082031 -0.8125 3.5625 -0.8125 C 4.226562 -0.8125 4.757812 -1.046875 5.15625 -1.515625 C 5.5625 -1.984375 5.765625 -2.609375 5.765625 -3.390625 L 5.765625 -3.65625 Z M 6.953125 -4.15625 L 6.953125 0 L 5.765625 0 L 5.765625 -1.109375 C 5.484375 -0.660156 5.140625 -0.332031 4.734375 -0.125 C 4.328125 0.0820312 3.828125 0.1875 3.234375 0.1875 C 2.492188 0.1875 1.898438 -0.0195312 1.453125 -0.4375 C 1.015625 -0.851562 0.796875 -1.414062 0.796875 -2.125 C 0.796875 -2.9375 1.070312 -3.550781 1.625 -3.96875 C 2.175781 -4.382812 2.992188 -4.59375 4.078125 -4.59375 L 5.765625 -4.59375 L 5.765625 -4.71875 C 5.765625 -5.269531 5.582031 -5.695312 5.21875 -6 C 4.851562 -6.300781 4.34375 -6.453125 3.6875 -6.453125 C 3.269531 -6.453125 2.863281 -6.398438 2.46875 -6.296875 C 2.070312 -6.203125 1.691406 -6.050781 1.328125 -5.84375 L 1.328125 -6.953125 C 1.765625 -7.117188 2.191406 -7.242188 2.609375 -7.328125 C 3.023438 -7.421875 3.425781 -7.46875 3.8125 -7.46875 C 4.863281 -7.46875 5.648438 -7.191406 6.171875 -6.640625 C 6.691406 -6.097656 6.953125 -5.269531 6.953125 -4.15625 Z "/>
</symbol>
</g>
</defs>
<g id="surface47">
<g style="fill:rgb(83.137255%,64.705882%,45.490196%);fill-opacity:1;">
  <use xlink:href="#glyph0-1" x="30" y="32.375977"/>
  <use xlink:href="#glyph0-2" x="34" y="32.375977"/>
</g>
</g>
</svg>
