<?xml version="1.0" encoding="UTF-8"?>
<svg xmlns="http://www.w3.org/2000/svg" xmlns:xlink="http://www.w3.org/1999/xlink" width="854pt" height="480pt" viewBox="0 0 854 480" version="1.1">
<defs>
<g>
<symbol overflow="visible" id="glyph0-0">
<path style="stroke:none;" d="M 0.65625 2.359375 L 0.65625 -9.390625 L 7.328125 -9.390625 L 7.328125 2.359375 Z M 1.40625 1.609375 L 6.59375 1.609375 L 6.59375 -8.65625 L 1.40625 -8.65625 Z "/>
</symbol>
<symbol overflow="visible" id="glyph0-1">
<path style="stroke:none;" d="M 7.125 -9.390625 L 7.125 -8.109375 C 6.632812 -8.347656 6.164062 -8.523438 5.71875 -8.640625 C 5.28125 -8.765625 4.851562 -8.828125 4.4375 -8.828125 C 3.71875 -8.828125 3.164062 -8.6875 2.78125 -8.40625 C 2.394531 -8.125 2.203125 -7.726562 2.203125 -7.21875 C 2.203125 -6.789062 2.328125 -6.46875 2.578125 -6.25 C 2.835938 -6.03125 3.328125 -5.851562 4.046875 -5.71875 L 4.84375 -5.5625 C 5.820312 -5.375 6.546875 -5.039062 7.015625 -4.5625 C 7.484375 -4.09375 7.71875 -3.46875 7.71875 -2.6875 C 7.71875 -1.738281 7.398438 -1.019531 6.765625 -0.53125 C 6.140625 -0.0507812 5.21875 0.1875 4 0.1875 C 3.539062 0.1875 3.050781 0.132812 2.53125 0.03125 C 2.007812 -0.0703125 1.472656 -0.222656 0.921875 -0.421875 L 0.921875 -1.78125 C 1.453125 -1.476562 1.972656 -1.25 2.484375 -1.09375 C 2.992188 -0.945312 3.5 -0.875 4 -0.875 C 4.75 -0.875 5.328125 -1.019531 5.734375 -1.3125 C 6.140625 -1.613281 6.34375 -2.035156 6.34375 -2.578125 C 6.34375 -3.054688 6.195312 -3.429688 5.90625 -3.703125 C 5.613281 -3.972656 5.132812 -4.175781 4.46875 -4.3125 L 3.65625 -4.46875 C 2.675781 -4.65625 1.96875 -4.957031 1.53125 -5.375 C 1.09375 -5.789062 0.875 -6.375 0.875 -7.125 C 0.875 -7.976562 1.175781 -8.648438 1.78125 -9.140625 C 2.382812 -9.640625 3.21875 -9.890625 4.28125 -9.890625 C 4.738281 -9.890625 5.203125 -9.847656 5.671875 -9.765625 C 6.148438 -9.679688 6.632812 -9.554688 7.125 -9.390625 Z "/>
</symbol>
<symbol overflow="visible" id="glyph0-2">
<path style="stroke:none;" d="M 1.15625 -9.71875 L 2.484375 -9.71875 L 2.484375 -3.8125 C 2.484375 -2.769531 2.671875 -2.019531 3.046875 -1.5625 C 3.421875 -1.101562 4.03125 -0.875 4.875 -0.875 C 5.71875 -0.875 6.328125 -1.101562 6.703125 -1.5625 C 7.085938 -2.019531 7.28125 -2.769531 7.28125 -3.8125 L 7.28125 -9.71875 L 8.59375 -9.71875 L 8.59375 -3.65625 C 8.59375 -2.382812 8.28125 -1.425781 7.65625 -0.78125 C 7.03125 -0.132812 6.101562 0.1875 4.875 0.1875 C 3.65625 0.1875 2.726562 -0.132812 2.09375 -0.78125 C 1.46875 -1.425781 1.15625 -2.382812 1.15625 -3.65625 Z "/>
</symbol>
<symbol overflow="visible" id="glyph0-3">
<path style="stroke:none;" d="M 2.625 -4.640625 L 2.625 -1.078125 L 4.734375 -1.078125 C 5.441406 -1.078125 5.960938 -1.222656 6.296875 -1.515625 C 6.640625 -1.804688 6.8125 -2.253906 6.8125 -2.859375 C 6.8125 -3.472656 6.640625 -3.921875 6.296875 -4.203125 C 5.960938 -4.492188 5.441406 -4.640625 4.734375 -4.640625 Z M 2.625 -8.640625 L 2.625 -5.703125 L 4.5625 -5.703125 C 5.207031 -5.703125 5.6875 -5.820312 6 -6.0625 C 6.3125 -6.3125 6.46875 -6.679688 6.46875 -7.171875 C 6.46875 -7.660156 6.3125 -8.023438 6 -8.265625 C 5.6875 -8.515625 5.207031 -8.640625 4.5625 -8.640625 Z M 1.3125 -9.71875 L 4.671875 -9.71875 C 5.671875 -9.71875 6.441406 -9.507812 6.984375 -9.09375 C 7.523438 -8.675781 7.796875 -8.082031 7.796875 -7.3125 C 7.796875 -6.71875 7.65625 -6.242188 7.375 -5.890625 C 7.101562 -5.546875 6.695312 -5.328125 6.15625 -5.234375 C 6.800781 -5.097656 7.300781 -4.804688 7.65625 -4.359375 C 8.019531 -3.921875 8.203125 -3.375 8.203125 -2.71875 C 8.203125 -1.851562 7.90625 -1.179688 7.3125 -0.703125 C 6.726562 -0.234375 5.890625 0 4.796875 0 L 1.3125 0 Z "/>
</symbol>
<symbol overflow="visible" id="glyph0-4">
<path style="stroke:none;" d="M 1.3125 -9.71875 L 2.625 -9.71875 L 2.625 -0.671875 C 2.625 0.492188 2.398438 1.34375 1.953125 1.875 C 1.503906 2.40625 0.789062 2.671875 -0.1875 2.671875 L -0.6875 2.671875 L -0.6875 1.5625 L -0.28125 1.5625 C 0.300781 1.5625 0.710938 1.394531 0.953125 1.0625 C 1.191406 0.738281 1.3125 0.160156 1.3125 -0.671875 Z "/>
</symbol>
<symbol overflow="visible" id="glyph0-5">
<path style="stroke:none;" d="M 1.3125 -9.71875 L 7.453125 -9.71875 L 7.453125 -8.609375 L 2.625 -8.609375 L 2.625 -5.734375 L 7.25 -5.734375 L 7.25 -4.625 L 2.625 -4.625 L 2.625 -1.109375 L 7.5625 -1.109375 L 7.5625 0 L 1.3125 0 Z "/>
</symbol>
<symbol overflow="visible" id="glyph0-6">
<path style="stroke:none;" d="M 8.578125 -8.96875 L 8.578125 -7.578125 C 8.140625 -7.992188 7.671875 -8.300781 7.171875 -8.5 C 6.671875 -8.707031 6.140625 -8.8125 5.578125 -8.8125 C 4.460938 -8.8125 3.609375 -8.472656 3.015625 -7.796875 C 2.429688 -7.117188 2.140625 -6.132812 2.140625 -4.84375 C 2.140625 -3.5625 2.429688 -2.582031 3.015625 -1.90625 C 3.609375 -1.226562 4.460938 -0.890625 5.578125 -0.890625 C 6.140625 -0.890625 6.671875 -0.988281 7.171875 -1.1875 C 7.671875 -1.394531 8.140625 -1.707031 8.578125 -2.125 L 8.578125 -0.75 C 8.117188 -0.4375 7.632812 -0.203125 7.125 -0.046875 C 6.613281 0.109375 6.070312 0.1875 5.5 0.1875 C 4.019531 0.1875 2.859375 -0.257812 2.015625 -1.15625 C 1.171875 -2.0625 0.75 -3.289062 0.75 -4.84375 C 0.75 -6.40625 1.171875 -7.632812 2.015625 -8.53125 C 2.859375 -9.4375 4.019531 -9.890625 5.5 -9.890625 C 6.070312 -9.890625 6.613281 -9.8125 7.125 -9.65625 C 7.644531 -9.507812 8.128906 -9.28125 8.578125 -8.96875 Z "/>
</symbol>
<symbol overflow="visible" id="glyph0-7">
<path style="stroke:none;" d="M -0.03125 -9.71875 L 8.1875 -9.71875 L 8.1875 -8.609375 L 4.734375 -8.609375 L 4.734375 0 L 3.40625 0 L 3.40625 -8.609375 L -0.03125 -8.609375 Z "/>
</symbol>
</g>
</defs>
<g id="surface12">
<g style="fill:rgb(83.137255%,64.705882%,45.490196%);fill-opacity:1;">
  <use xlink:href="#glyph0-1" x="30" y="32.375977"/>
  <use xlink:href="#glyph0-2" x="38" y="32.375977"/>
  <use xlink:href="#glyph0-3" x="48" y="32.375977"/>
  <use xlink:href="#glyph0-4" x="57" y="32.375977"/>
  <use xlink:href="#glyph0-5" x="61" y="32.375977"/>
  <use xlink:href="#glyph0-6" x="69" y="32.375977"/>
  <use xlink:href="#glyph0-7" x="78" y="32.375977"/>
</g>
</g>
</svg>
