<?xml version="1.0" encoding="UTF-8"?>
<svg xmlns="http://www.w3.org/2000/svg" xmlns:xlink="http://www.w3.org/1999/xlink" width="854pt" height="480pt" viewBox="0 0 854 480" version="1.1">
<defs>
<g>
<symbol overflow="visible" id="glyph0-0">
<path style="stroke:none;" d="M 0.65625 2.359375 L 0.65625 -9.390625 L 7.328125 -9.390625 L 7.328125 2.359375 Z M 1.40625 1.609375 L 6.59375 1.609375 L 6.59375 -8.65625 L 1.40625 -8.65625 Z "/>
</symbol>
<symbol overflow="visible" id="glyph0-1">
<path style="stroke:none;" d="M 2.5625 -1.109375 L 7.140625 -1.109375 L 7.140625 0 L 0.96875 0 L 0.96875 -1.109375 C 1.46875 -1.617188 2.148438 -2.304688 3.015625 -3.171875 C 3.878906 -4.046875 4.421875 -4.613281 4.640625 -4.875 C 5.054688 -5.34375 5.347656 -5.738281 5.515625 -6.0625 C 5.679688 -6.394531 5.765625 -6.71875 5.765625 -7.03125 C 5.765625 -7.550781 5.582031 -7.972656 5.21875 -8.296875 C 4.863281 -8.617188 4.394531 -8.78125 3.8125 -8.78125 C 3.40625 -8.78125 2.972656 -8.707031 2.515625 -8.5625 C 2.054688 -8.425781 1.566406 -8.210938 1.046875 -7.921875 L 1.046875 -9.25 C 1.566406 -9.457031 2.054688 -9.613281 2.515625 -9.71875 C 2.984375 -9.832031 3.40625 -9.890625 3.78125 -9.890625 C 4.789062 -9.890625 5.59375 -9.632812 6.1875 -9.125 C 6.789062 -8.625 7.09375 -7.957031 7.09375 -7.125 C 7.09375 -6.71875 7.015625 -6.335938 6.859375 -5.984375 C 6.710938 -5.628906 6.441406 -5.207031 6.046875 -4.71875 C 5.941406 -4.59375 5.597656 -4.226562 5.015625 -3.625 C 4.429688 -3.03125 3.613281 -2.191406 2.5625 -1.109375 Z "/>
</symbol>
<symbol overflow="visible" id="glyph0-2">
<path style="stroke:none;" d="M 4.234375 -8.84375 C 3.554688 -8.84375 3.046875 -8.507812 2.703125 -7.84375 C 2.367188 -7.1875 2.203125 -6.1875 2.203125 -4.84375 C 2.203125 -3.507812 2.367188 -2.507812 2.703125 -1.84375 C 3.046875 -1.1875 3.554688 -0.859375 4.234375 -0.859375 C 4.921875 -0.859375 5.429688 -1.1875 5.765625 -1.84375 C 6.109375 -2.507812 6.28125 -3.507812 6.28125 -4.84375 C 6.28125 -6.1875 6.109375 -7.1875 5.765625 -7.84375 C 5.429688 -8.507812 4.921875 -8.84375 4.234375 -8.84375 Z M 4.234375 -9.890625 C 5.328125 -9.890625 6.160156 -9.457031 6.734375 -8.59375 C 7.304688 -7.738281 7.59375 -6.488281 7.59375 -4.84375 C 7.59375 -3.207031 7.304688 -1.957031 6.734375 -1.09375 C 6.160156 -0.238281 5.328125 0.1875 4.234375 0.1875 C 3.148438 0.1875 2.316406 -0.238281 1.734375 -1.09375 C 1.160156 -1.957031 0.875 -3.207031 0.875 -4.84375 C 0.875 -6.488281 1.160156 -7.738281 1.734375 -8.59375 C 2.316406 -9.457031 3.148438 -9.890625 4.234375 -9.890625 Z "/>
</symbol>
<symbol overflow="visible" id="glyph0-3">
<path style="stroke:none;" d="M 1.65625 -1.109375 L 3.796875 -1.109375 L 3.796875 -8.515625 L 1.46875 -8.046875 L 1.46875 -9.25 L 3.78125 -9.71875 L 5.109375 -9.71875 L 5.109375 -1.109375 L 7.25 -1.109375 L 7.25 0 L 1.65625 0 Z "/>
</symbol>
<symbol overflow="visible" id="glyph0-4">
<path style="stroke:none;" d="M 5.40625 -5.234375 C 6.039062 -5.097656 6.53125 -4.816406 6.875 -4.390625 C 7.226562 -3.972656 7.40625 -3.453125 7.40625 -2.828125 C 7.40625 -1.867188 7.078125 -1.125 6.421875 -0.59375 C 5.765625 -0.0703125 4.828125 0.1875 3.609375 0.1875 C 3.203125 0.1875 2.78125 0.144531 2.34375 0.0625 C 1.914062 -0.0078125 1.472656 -0.128906 1.015625 -0.296875 L 1.015625 -1.5625 C 1.378906 -1.351562 1.773438 -1.191406 2.203125 -1.078125 C 2.640625 -0.972656 3.097656 -0.921875 3.578125 -0.921875 C 4.398438 -0.921875 5.023438 -1.082031 5.453125 -1.40625 C 5.890625 -1.726562 6.109375 -2.203125 6.109375 -2.828125 C 6.109375 -3.398438 5.90625 -3.847656 5.5 -4.171875 C 5.101562 -4.492188 4.546875 -4.65625 3.828125 -4.65625 L 2.6875 -4.65625 L 2.6875 -5.734375 L 3.875 -5.734375 C 4.519531 -5.734375 5.015625 -5.863281 5.359375 -6.125 C 5.703125 -6.382812 5.875 -6.753906 5.875 -7.234375 C 5.875 -7.734375 5.695312 -8.113281 5.34375 -8.375 C 4.988281 -8.644531 4.484375 -8.78125 3.828125 -8.78125 C 3.460938 -8.78125 3.070312 -8.738281 2.65625 -8.65625 C 2.25 -8.582031 1.800781 -8.460938 1.3125 -8.296875 L 1.3125 -9.46875 C 1.8125 -9.613281 2.273438 -9.71875 2.703125 -9.78125 C 3.140625 -9.851562 3.550781 -9.890625 3.9375 -9.890625 C 4.9375 -9.890625 5.726562 -9.660156 6.3125 -9.203125 C 6.894531 -8.753906 7.1875 -8.144531 7.1875 -7.375 C 7.1875 -6.832031 7.03125 -6.375 6.71875 -6 C 6.414062 -5.632812 5.976562 -5.378906 5.40625 -5.234375 Z "/>
</symbol>
</g>
</defs>
<g id="surface32">
<g style="fill:rgb(83.137255%,64.705882%,45.490196%);fill-opacity:1;">
  <use xlink:href="#glyph0-1" x="30" y="32.375977"/>
  <use xlink:href="#glyph0-2" x="38" y="32.375977"/>
  <use xlink:href="#glyph0-3" x="46" y="32.375977"/>
  <use xlink:href="#glyph0-4" x="54" y="32.375977"/>
</g>
</g>
</svg>
